<?xml version="1.0" encoding="utf-8"?>
<!-- Generator: Adobe Illustrator 21.0.0, SVG Export Plug-In . SVG Version: 6.00 Build 0)  -->
<svg version="1.1" id="Layer_1" xmlns="http://www.w3.org/2000/svg" xmlns:xlink="http://www.w3.org/1999/xlink" x="0px" y="0px"
	 viewBox="0 0 700 700" style="enable-background:new 0 0 700 700;" xml:space="preserve">
<style type="text/css">
	.st0{fill:none;stroke:#000000;stroke-miterlimit:10;}
	.st1{fill:#F7DF1E;}
	.st2{opacity:0.6;}
</style>
<circle class="st0" cx="350" cy="350" r="350"/>
<rect class="st1" width="700" height="700"/>
<path d="M440.2,509.2c12.7,20.7,29.2,35.9,58.4,35.9c24.5,0,40.2-12.3,40.2-29.2c0-20.3-16.1-27.5-43.1-39.3l-14.8-6.4
	c-42.7-18.2-71.1-41-71.1-89.2c0-44.4,33.8-78.2,86.7-78.2c37.6,0,64.7,13.1,84.2,47.4l-46.1,29.6c-10.2-18.2-21.1-25.4-38.1-25.4
	c-17.3,0-28.3,11-28.3,25.4c0,17.8,11,25,36.4,36l14.8,6.3c50.3,21.6,78.7,43.6,78.7,93c0,53.3-41.9,82.5-98.1,82.5
	c-55,0-90.5-26.2-107.9-60.5L440.2,509.2z M231.1,514.3c9.3,16.5,17.8,30.5,38.1,30.5c19.5,0,31.7-7.6,31.7-37.2V306.3h59.2v202.1
	c0,61.3-35.9,89.2-88.4,89.2c-47.4,0-74.8-24.5-88.8-54.1L231.1,514.3z"/>
<g class="st2">
	<g transform="translate(0.000000,511.000000) scale(0.100000,-0.100000)">
		<path d="M1025.3,1537.2c280.1,853,843.4,1644.4,1552.7,2181.8c330.9,250.5,696.3,432.8,1035.9,517.5
			c83.8,20.7,128.7,26.8,233.3,30.2l129.6,4.3l-133.9-35.5c-461.4-121-844.1-304.1-1204.3-577.1
			c-393.1-297.2-845.8-802.6-1102.4-1228.5c-74.3-124.4-194.4-353.4-187.5-359.4c1.7-2.6,38-13,80.3-25.1
			c42.3-11.2,104.5-30.2,137.4-42.3l60.5-21.6l-47.5,42.3l-47.5,42.3l216,0.9l216,0.9l-121,48.4c-82.1,32-139.1,61.3-178,89.9
			c-96.8,70.9-98.5,68.2,60.5,68.2c256.6,0,514.9,60.5,794.8,186.6c131.3,58.8,257.5,129.6,248,139.1c-2.6,2.6-36.3,7.8-76,12.1
			c-78.6,7.8-214.3,34.6-214.3,42.3c0,2.6,59.6,26.8,132.2,55.3c202.2,77.8,270.5,117.5,489.9,290.3c64,51,163.3,123.5,220.3,161.5
			c95,63.1,258.3,191.8,252.3,197.8c-0.9,1.7-35.4-5.2-75.2-13.8c-182.3-39.7-493.3-63.9-648.8-51c-79.5,6.9-190.9,32.8-248.8,57
			c-35.4,15.6-31.1,15.6,238.5,15.6c248.8,0,285.1,2.6,382.7,19.9c142.5,25.9,237.6,56.2,332.6,103.7
			c154.6,76.9,244.5,147.7,368,291.2c76,88.1,95.9,116.6,118.3,173.6c46.7,119.2,57,229.8,31.1,354.2
			c-25.9,123.5-115.8,211.7-277.3,272.2c-190.9,70.9-289.4,82.1-444.9,51c-124.4-25.9-178-63.1-292.9-206.5
			c-48.4-59.6-94.2-114.9-101.1-121.8c-12.1-12.1,61.3,133.1,151.2,300.6c21.6,38.9,37.1,70.9,35.4,70.9c-1,0-67.5-29.3-147.9-64.8
			c-151.2-67.4-200.4-95.9-309.3-178.8c-127-96.8-182.3-188.3-371.5-613.4c-54.4-121.8-99.3-220.3-101.1-218.6
			c-6,6,18.1,142.5,41.5,233.3c13,52.7,42.3,144.3,63.9,205.6c21.6,60.5,36.3,109.7,32,109.7c-18.1,0-134.8-55.3-200.4-94.2
			c-144.3-87.2-324-248-415.6-372.4c-215.1-293.7-311.9-542.6-369.8-950.4l-24.2-168.5l-0.9,79.5c-1.7,154.6,15.6,292,59.6,487.3
			c24.2,102.8,43.2,190.1,43.2,193.5s-26.8-22.5-60.5-57.9c-103.6-108.9-198.7-276.5-238.4-422.5c-18.1-68.2-30.2-223.8-20.7-281.6
			c4.3-26.8,6.9-50.1,5.2-52.7c-1.7-1.7-23.3,6.9-47.5,19c-24.2,13-44.1,19.9-44.1,16.4c0-4.3,12.1-47.5,25.9-97.6
			s25.9-90.7,25.9-91.6c0,0-35.4,4.3-79.5,11.2c-43.2,6-80.3,9.5-82.1,7.8c-2.6-2.6,17.3-30.2,43.2-63.1c25.9-32,68.2-95.9,95-140.8
			l47.5-81.2l-21.6-48.4c-126.1-276.5-259.2-635.9-241.9-653.2c2.4-2.4,82.4,48.4,115.6,76.8
			C989.2,1487.1,1025.3,1537.2,1025.3,1537.2z"/>
	</g>
</g>
</svg>
